HIERARCHY
ROOT Hips
{
	OFFSET 0.000000 0.000000 0.000000
	CHANNELS 6 Xposition Yposition Zposition Zrotation Yrotation Xrotation 
	JOINT LHipJoint
	{
		OFFSET 0.000000 0.000000 0.000000
		CHANNELS 3 Zrotation Yrotation Xrotation
		JOINT LeftUpLeg
		{
			OFFSET 1.363060 -1.794630 0.839290
			CHANNELS 3 Zrotation Yrotation Xrotation
			JOINT LeftLeg
			{
				OFFSET 2.448110 -6.726130 0.000000
				CHANNELS 3 Zrotation Yrotation Xrotation
				JOINT LeftFoot
				{
					OFFSET 2.562200 -7.039590 0.000000
					CHANNELS 3 Zrotation Yrotation Xrotation
					JOINT LeftToeBase
					{
						OFFSET 0.157640 -0.433110 2.322550
						CHANNELS 3 Zrotation Yrotation Xrotation
						End Site
						{
							OFFSET 0.000000 0.000000 0.000000
						}
					}
				}
			}
		}
	}
	JOINT RHipJoint
	{
		OFFSET 0.000000 0.000000 0.000000
		CHANNELS 3 Zrotation Yrotation Xrotation
		JOINT RightUpLeg
		{
			OFFSET -1.305520 -1.794630 0.839290
			CHANNELS 3 Zrotation Yrotation Xrotation
			JOINT RightLeg
			{
				OFFSET -2.542530 -6.985550 0.000000
				CHANNELS 3 Zrotation Yrotation Xrotation
				JOINT RightFoot
				{
					OFFSET -2.568260 -7.056230 0.000000
					CHANNELS 3 Zrotation Yrotation Xrotation
					JOINT RightToeBase
					{
						OFFSET -0.164730 -0.452590 2.363150
						CHANNELS 3 Zrotation Yrotation Xrotation
						End Site
						{
							OFFSET 0.000000 0.000000 0.000000
						}
					}
				}
			}
		}
	}
	JOINT LowerBack
	{
		OFFSET 0.000000 0.000000 0.000000
		CHANNELS 3 Zrotation Yrotation Xrotation
		JOINT Spine
		{
			OFFSET 0.028270 2.035590 -0.193380
			CHANNELS 3 Zrotation Yrotation Xrotation
			JOINT Spine1
			{
				OFFSET 0.056720 2.048850 -0.042750
				CHANNELS 3 Zrotation Yrotation Xrotation
				JOINT Neck
				{
					OFFSET 0.000000 0.000000 0.000000
					CHANNELS 3 Zrotation Yrotation Xrotation
					JOINT Neck1
					{
						OFFSET -0.054170 1.746240 0.172020
						CHANNELS 3 Zrotation Yrotation Xrotation
						JOINT Head
						{
							OFFSET 0.104070 1.761360 -0.123970
							CHANNELS 3 Zrotation Yrotation Xrotation
							End Site
							{
								OFFSET 0.000000 0.000000 0.000000
							}
						}
					}
				}
				JOINT LeftShoulder
				{
					OFFSET 0.000000 0.000000 0.000000
					CHANNELS 3 Zrotation Yrotation Xrotation
					JOINT LeftArm
					{
						OFFSET 3.362410 1.200890 -0.311210
						CHANNELS 3 Zrotation Yrotation Xrotation
						JOINT LeftForeArm
						{
							OFFSET 4.983000 -0.000000 -0.000000
							CHANNELS 3 Zrotation Yrotation Xrotation
							JOINT LeftHand
							{
								OFFSET 3.483560 -0.000000 -0.000000
								CHANNELS 3 Zrotation Yrotation Xrotation
								JOINT LeftFingerBase
								{
									OFFSET 0.000000 0.000000 0.000000
									CHANNELS 3 Zrotation Yrotation Xrotation
									JOINT LeftHandIndex1
									{
										OFFSET 0.715260 -0.000000 -0.000000
										CHANNELS 3 Zrotation Yrotation Xrotation
										End Site
										{
											OFFSET 0.000000 0.000000 0.000000
										}
									}
								}
								JOINT LThumb
								{
									OFFSET 0.000000 0.000000 0.000000
									CHANNELS 3 Zrotation Yrotation Xrotation
									End Site
									{
										OFFSET 0.000000 0.000000 0.000000
									}
								}
							}
						}
					}
				}
				JOINT RightShoulder
				{
					OFFSET 0.000000 0.000000 0.000000
					CHANNELS 3 Zrotation Yrotation Xrotation
					JOINT RightArm
					{
						OFFSET -3.136600 1.374050 -0.404650
						CHANNELS 3 Zrotation Yrotation Xrotation
						JOINT RightForeArm
						{
							OFFSET -5.241900 -0.000000 -0.000000
							CHANNELS 3 Zrotation Yrotation Xrotation
							JOINT RightHand
							{
								OFFSET -3.444170 -0.000000 -0.000000
								CHANNELS 3 Zrotation Yrotation Xrotation
								JOINT RightFingerBase
								{
									OFFSET 0.000000 0.000000 0.000000
									CHANNELS 3 Zrotation Yrotation Xrotation
									JOINT RightHandIndex1
									{
										OFFSET -0.622530 -0.000000 -0.000000
										CHANNELS 3 Zrotation Yrotation Xrotation
										End Site
										{
											OFFSET 0.000000 0.000000 0.000000
										}
									}
								}
								JOINT RThumb
								{
									OFFSET 0.000000 0.000000 0.000000
									CHANNELS 3 Zrotation Yrotation Xrotation
									End Site
									{
										OFFSET 0.000000 0.000000 0.000000
									}
								}
							}
						}
					}
				}
			}
		}
	}
}
MOTION
Frames: 12
Frame Time: 0.008333
-38.197688 18.003443 -3.871894 -23.542006 78.153120 -17.288409 -2.290372 -1.635652 -1.289003 -1.919659 -7.807204 -23.267032 -2.063688 9.147959 25.891352 7.290251 -13.736455 25.966868 1.713700 8.242300 23.452400 4.903338 -2.312547 3.879045 18.430770 12.731164 0.348849 3.254843 -4.452927 14.085896 -0.145499 -2.909364 -7.327154 -0.351700 -3.810500 10.544200 -1.539250 2.204212 11.489396 5.993598 3.012779 6.999368 5.969711 2.106852 2.245898 -2.661271 3.874504 -3.957592 -2.404953 3.796929 -16.333423 -2.269800 1.655900 -4.898600 -0.970017 -6.081241 0.605686 -78.499555 13.732292 44.433257 31.844463 -41.293925 -15.023569 0.727897 -1.810422 -8.578904 -0.359550 10.270018 -0.170000 -7.125000 0.000000 0.000000 -24.492900 40.807700 2.718900 2.488820 5.482716 2.271726 65.354895 -16.080213 45.641977 -27.893065 35.658287 -9.652340 0.861977 0.518188 -7.822309 -10.812706 -17.353141 3.614100 7.125000 0.000000 0.000000 15.538100 -47.414300 -0.947500 
-38.199750 17.997773 -3.874163 -23.700877 78.161155 -17.409306 -2.269724 -1.653546 -1.321129 -1.901535 -7.850151 -23.341701 -2.027544 9.204474 26.033495 7.300835 -13.831649 25.770869 1.649600 8.094600 23.001800 4.904422 -2.292494 3.860513 18.446522 12.682382 0.210960 3.234236 -4.516746 14.250788 -0.178751 -2.826659 -7.385524 -0.353600 -3.820600 10.572400 -3.441187 3.678895 11.375366 7.237102 4.830892 7.076854 8.517871 2.891737 1.717563 -1.029232 2.757171 -4.188859 -4.657123 2.173186 -15.897312 -3.181300 0.916400 -4.795500 -0.982036 -6.026119 0.583575 -78.996723 12.901849 48.220225 31.655908 -41.093019 -14.734652 0.732959 -1.806215 -8.631266 -0.567278 10.251051 -0.214300 -7.125000 0.000000 0.000000 -24.659500 40.767700 2.766400 2.528903 5.547221 2.274174 65.035308 -17.802701 42.420159 -28.141755 35.920818 -9.942422 0.846558 0.534866 -8.095556 -10.814976 -17.363997 3.616400 7.125000 0.000000 0.000000 15.555400 -47.438400 -0.958000 
-38.202328 17.990453 -3.876946 -23.800402 78.162901 -17.441772 -2.244606 -1.677249 -1.364576 -1.888637 -7.918677 -23.462722 -1.975445 9.286482 26.230862 7.299422 -13.898256 25.509555 1.575200 7.918600 22.467100 4.908153 -2.257035 3.835829 18.444938 12.598132 -0.016512 3.203306 -4.607915 14.488990 -0.217619 -2.731246 -7.449710 -0.347300 -3.786700 10.477200 -5.354336 5.109882 11.220653 8.420092 6.612165 7.120193 10.984325 3.712374 0.978851 0.614286 1.671089 -4.570451 -6.868641 0.621368 -15.340371 -4.095200 0.202300 -4.676800 -0.993736 -5.951132 0.557961 -79.516204 12.250879 51.907425 31.502388 -40.918329 -14.483036 0.738173 -1.802056 -8.614897 -0.738057 10.255312 -0.251600 -7.125000 0.000000 0.000000 -24.805600 40.751700 2.795900 2.551661 5.622028 2.274720 64.878654 -19.581402 39.271962 -28.395169 36.170523 -10.227715 0.830679 0.546472 -8.384120 -10.832051 -17.354945 3.618300 7.125000 0.000000 0.000000 15.550900 -47.440000 -0.958400 
-38.204493 17.981484 -3.878286 -24.044707 78.171707 -17.670110 -2.217628 -1.694148 -1.378292 -1.864061 -7.952762 -23.578699 -1.922971 9.364469 26.439873 7.307341 -14.002478 25.310181 1.536800 7.826100 22.187100 4.911266 -2.239601 3.836274 18.490371 12.579640 -0.181019 3.170148 -4.704479 14.746522 -0.226681 -2.712813 -7.497244 -0.280700 -3.407300 9.414700 -2.032845 3.298005 13.083035 5.934254 4.376339 5.905600 6.081751 2.823072 -0.181202 0.191036 3.050034 -3.507383 -3.714192 2.630493 -15.345780 -3.085400 1.007200 -4.705500 -0.975025 -5.916479 0.638068 -76.696588 15.312781 48.469436 31.926291 -41.490579 -15.078361 0.757236 -1.843184 -9.063268 -0.823594 10.310629 -0.271300 -7.125000 0.000000 0.000000 -24.910500 40.836800 2.753000 2.352563 5.548119 2.254457 67.244086 -19.009762 43.453352 -28.476417 36.213342 -10.032763 0.853198 0.475682 -7.763839 -10.825049 -17.293513 3.593800 7.125000 0.000000 0.000000 15.504800 -47.317100 -0.907400 
-38.205936 17.967566 -3.879008 -24.032709 78.199275 -17.670653 -2.194114 -1.707855 -1.394154 -1.897099 -7.960323 -23.704225 -1.878192 9.453061 26.685543 7.306208 -14.114698 25.295580 1.531900 7.814200 22.151300 4.913093 -2.213818 3.827735 18.501674 12.563182 -0.327482 3.127456 -4.815664 15.052640 -0.181222 -2.829398 -7.452852 -0.246000 -3.191600 8.812700 -0.082103 2.586969 14.224325 4.368197 3.583582 5.144954 3.034195 2.550684 -1.248099 0.944961 3.460496 -2.884489 -2.224547 3.296320 -15.178611 -2.747700 1.201200 -4.715200 -0.994076 -5.862930 0.710167 -74.259706 17.009895 47.875051 32.026486 -41.716467 -15.314427 0.771615 -1.879239 -9.280160 -0.838147 10.296718 -0.275200 -7.125000 0.000000 0.000000 -24.932600 40.858700 2.741200 2.182308 5.568208 2.228296 69.657888 -19.235826 44.583590 -28.449926 36.178251 -9.880713 0.863631 0.410500 -7.306960 -10.719105 -17.139206 3.518700 7.125000 0.000000 0.000000 15.526900 -47.095200 -0.821900 
-38.207586 17.955813 -3.880348 -24.173379 78.224528 -17.806636 -2.163944 -1.727492 -1.419362 -1.905064 -7.979562 -23.839794 -1.818387 9.552946 26.956286 7.313271 -14.255362 25.133768 1.503500 7.744700 21.941200 4.911190 -2.187132 3.814388 18.535698 12.520556 -0.514241 3.081448 -4.939633 15.386749 -0.193110 -2.809386 -7.543046 -0.222200 -3.034500 8.374900 0.744035 2.326401 14.905346 3.728658 3.319405 4.734912 1.753376 2.459884 -1.955883 1.310394 3.573352 -2.610386 -1.632280 3.500680 -15.036564 -2.621100 1.247900 -4.702500 -1.003267 -5.824887 0.734198 -73.187885 17.909768 47.959052 32.034885 -41.801739 -15.392642 0.780957 -1.896827 -9.403214 -0.906337 10.307825 -0.290800 -7.125000 0.000000 0.000000 -25.001600 40.880200 2.735700 2.101301 5.575657 2.216954 70.719458 -19.583885 44.963383 -28.499660 36.218249 -9.854889 0.865883 0.382485 -7.132949 -10.668474 -17.058733 3.481700 7.125000 0.000000 0.000000 15.538100 -46.985200 -0.779400 
-38.209029 17.942719 -3.881792 -24.358635 78.259580 -17.998937 -2.131542 -1.748413 -1.445139 -1.914809 -7.991901 -23.979554 -1.753453 9.659895 27.250342 7.323107 -14.417950 24.967516 1.478000 7.681500 21.750900 4.906130 -2.160261 3.798915 18.584260 12.473212 -0.706324 3.028531 -5.078946 15.762749 -0.209867 -2.781658 -7.674436 -0.201500 -2.890400 7.973900 1.500231 2.036614 15.478764 3.181463 3.022853 4.425015 0.628954 2.341067 -2.513088 1.486537 3.707437 -2.402345 -1.051262 3.730930 -14.961154 -2.470300 1.318300 -4.698600 -1.012307 -5.796800 0.750733 -72.368977 18.661789 47.881821 31.993042 -41.837200 -15.425725 0.787741 -1.910167 -9.464572 -0.952876 10.308703 -0.301600 -7.125000 0.000000 0.000000 -25.047400 40.889600 2.735200 2.036279 5.578253 2.207739 71.545550 -19.772836 45.402283 -28.509550 36.221995 -9.810879 0.867529 0.360387 -6.979157 -10.613994 -16.983171 3.446000 7.125000 0.000000 0.000000 15.556100 -46.885300 -0.741100 
-38.209854 17.928698 -3.883029 -24.572819 78.296199 -18.223519 -2.095703 -1.770501 -1.473120 -1.925796 -7.988899 -24.125747 -1.684902 9.771520 27.559659 7.336616 -14.601187 24.795224 1.454900 7.624000 21.577800 4.899213 -2.136146 3.784131 18.640874 12.425553 -0.886287 2.976064 -5.214472 16.128892 -0.229577 -2.748264 -7.820862 -0.184700 -2.767700 7.632800 2.085151 1.783449 15.906351 2.777712 2.763031 4.217926 -0.217489 2.230018 -2.905167 1.542197 3.831755 -2.230972 -0.578265 3.936514 -14.962551 -2.334900 1.388600 -4.714500 -1.020372 -5.779630 0.759751 -71.841402 19.226750 47.742113 31.895362 -41.815715 -15.401333 0.791671 -1.918691 -9.462012 -0.983117 10.306299 -0.308800 -7.125000 0.000000 0.000000 -25.076800 40.892500 2.736900 1.990185 5.576127 2.200868 72.109570 -19.851066 45.797028 -28.484914 36.195612 -9.757622 0.868252 0.344871 -6.849818 -10.561353 -16.915091 3.413700 7.125000 0.000000 0.000000 15.577300 -46.799000 -0.708300 
-38.209957 17.913852 -3.884266 -24.825844 78.334853 -18.487286 -2.055853 -1.794826 -1.505509 -1.936646 -7.973715 -24.280390 -1.610420 9.890422 27.890031 7.353833 -14.807149 24.604026 1.431100 7.564100 21.397700 4.889789 -2.112438 3.766672 18.707490 12.372802 -1.067041 2.921089 -5.354238 16.505708 -0.255412 -2.702717 -7.996227 -0.171600 -2.668900 7.358300 2.334278 1.680473 16.157324 2.609561 2.664746 4.134917 -0.582678 2.185945 -3.098606 1.620000 3.865952 -2.186028 -0.412930 4.000487 -14.986017 -2.296000 1.405700 -4.723500 -1.025314 -5.772347 0.761640 -71.658147 19.478589 47.740795 31.728595 -41.718492 -15.294909 0.792291 -1.921201 -9.384123 -1.003063 10.289078 -0.313300 -7.125000 0.000000 0.000000 -25.090000 40.876500 2.749400 1.971669 5.576287 2.197626 72.368886 -19.866205 45.922314 -28.431719 36.147048 -9.709719 0.868114 0.337738 -6.765621 -10.517359 -16.869414 3.390000 7.125000 0.000000 0.000000 15.600900 -46.743300 -0.687500 
-38.209235 17.898491 -3.885503 -25.120608 78.371992 -18.790546 -2.012326 -1.821187 -1.541358 -1.944943 -7.946131 -24.442944 -1.530355 10.015026 28.237467 7.373572 -15.027639 24.397016 1.415800 7.525300 21.281200 4.877996 -2.089601 3.747842 18.783172 12.312182 -1.250068 2.864482 -5.495665 16.886935 -0.289478 -2.638562 -8.193180 -0.159900 -2.576300 7.101300 2.342515 1.664229 16.265049 2.615785 2.652440 4.141201 -0.589701 2.177729 -3.131880 1.651071 3.862173 -2.189167 -0.439905 3.995221 -15.055807 -2.309200 1.401700 -4.743000 -1.027122 -5.774978 0.756490 -71.780934 19.526623 47.749884 31.508069 -41.563268 -15.127513 0.789940 -1.918534 -9.245736 -1.010568 10.268337 -0.314900 -7.125000 0.000000 0.000000 -25.089700 40.852900 2.765100 1.974040 5.572713 2.197528 72.353679 -19.814931 45.935568 -28.354250 36.078797 -9.662713 0.867240 0.337469 -6.713618 -10.485869 -16.838256 3.374300 7.125000 0.000000 0.000000 15.620100 -46.709500 -0.675000 
-38.207276 17.882614 -3.886740 -25.433716 78.402635 -19.110165 -1.965471 -1.847107 -1.578471 -1.952565 -7.908083 -24.612809 -1.444049 10.145544 28.600421 7.396344 -15.263884 24.155516 1.392600 7.466000 21.103500 4.864959 -2.067535 3.730292 18.861358 12.241288 -1.434971 2.807621 -5.634910 17.262764 -0.329840 -2.558539 -8.390646 -0.148200 -2.480700 6.836100 2.351684 1.645016 16.373478 2.622110 2.636973 4.151382 -0.598610 2.167465 -3.162404 1.679858 3.855866 -2.240439 -0.465675 3.988264 -15.096974 -2.322000 1.397100 -4.745800 -1.028562 -5.777489 0.750716 -71.926213 19.553353 47.713376 31.264028 -41.387809 -14.943036 0.787045 -1.915044 -9.088973 -1.014449 10.234346 -0.315400 -7.125000 0.000000 0.000000 -25.081300 40.816700 2.788300 1.977848 5.571315 2.197428 72.338762 -19.740194 45.952064 -28.255241 35.992128 -9.604276 0.868441 0.336465 -6.638581 -10.479497 -16.833214 3.371600 7.125000 0.000000 0.000000 15.623300 -46.703900 -0.673000 
-38.204080 17.866222 -3.888081 -25.747137 78.426388 -19.425326 -1.915966 -1.872662 -1.616881 -1.960876 -7.862529 -24.790426 -1.351813 10.282138 28.980111 7.420278 -15.510771 23.894858 1.371300 7.411100 20.939100 4.851065 -2.046608 3.714528 18.938505 12.164414 -1.618693 2.751506 -5.769333 17.626126 -0.372553 -2.472083 -8.584004 -0.136000 -2.377300 6.549600 2.361491 1.633263 16.468951 2.623915 2.629591 4.151932 -0.615373 2.161080 -3.199096 1.723367 3.840430 -2.259955 -0.490406 3.968110 -15.135641 -2.336400 1.385300 -4.753800 -1.031235 -5.780400 0.745061 -72.065994 19.581300 47.675477 30.997294 -41.194168 -14.742354 0.783612 -1.911639 -8.912602 -1.011024 10.204515 -0.314500 -7.125000 0.000000 0.000000 -25.068500 40.784900 2.808000 1.979916 5.570133 2.196764 72.350995 -19.683622 45.948273 -28.136650 35.889098 -9.535244 0.871311 0.334210 -6.543743 -10.493588 -16.846234 3.378800 7.125000 0.000000 0.000000 15.612600 -46.717600 -0.677900 
